<svg width="64" height="64" viewBox="0 0 64 64" fill="none" xmlns="http://www.w3.org/2000/svg">
<path fill-rule="evenodd" clip-rule="evenodd" d="M45.961 49.4479C46.766 50.0179 47.8035 50.1604 48.7285 49.8104C49.6535 49.4579 50.3336 48.6679 50.5386 47.7104C52.7111 37.5004 57.9811 11.6579 59.9586 2.37037C60.1086 1.67037 59.8586 0.942872 59.3086 0.475371C58.7586 0.00787075 57.9961 -0.12713 57.3161 0.125371C46.8335 4.00538 14.551 16.1179 1.356 21.0004C0.518495 21.3104 -0.0265054 22.1154 0.000994635 22.9979C0.0309947 23.8829 0.625995 24.6504 1.4835 24.9079C7.401 26.6779 15.1685 29.1404 15.1685 29.1404C15.1685 29.1404 18.7985 40.1029 20.691 45.6779C20.9285 46.3779 21.476 46.9279 22.1985 47.1179C22.9185 47.3054 23.6885 47.1079 24.226 46.6004C27.266 43.7304 31.966 39.2929 31.966 39.2929C31.966 39.2929 40.896 45.8404 45.961 49.4479ZM18.436 27.7554L22.6335 41.6004L23.566 32.8329C23.566 32.8329 39.7835 18.2054 49.0286 9.86788C49.2986 9.62288 49.336 9.21288 49.111 8.92538C48.8885 8.63788 48.4785 8.57038 48.171 8.76538C37.456 15.6079 18.436 27.7554 18.436 27.7554Z" fill="currentColor"/>
</svg>
